<svg width="345" height="136" viewBox="0 0 345 136" fill="none" xmlns="http://www.w3.org/2000/svg">
<path d="M81.3 107V35.6H94.1V96.2H123.9V107H81.3ZM136.28 107V35.6H149.08V96.2H178.88V107H136.28ZM238.461 79.8C238.461 84.3333 237.861 88.3333 236.661 91.8C235.461 95.2667 233.728 98.2333 231.461 100.7C229.261 103.1 226.528 104.933 223.261 106.2C220.061 107.4 216.494 108 212.561 108C208.828 108 205.394 107.4 202.261 106.2C199.128 104.933 196.394 103.1 194.061 100.7C191.794 98.2333 190.028 95.2667 188.761 91.8C187.494 88.3333 186.861 84.3333 186.861 79.8C186.861 73.8 187.894 68.7333 189.961 64.6C192.028 60.4 194.994 57.2333 198.861 55.1C202.794 52.9 207.428 51.8 212.761 51.8C217.828 51.8 222.261 52.9 226.061 55.1C229.928 57.2333 232.961 60.4 235.161 64.6C237.361 68.7333 238.461 73.8 238.461 79.8ZM199.761 79.8C199.761 83.6 200.194 86.8667 201.061 89.6C201.994 92.2667 203.394 94.3 205.261 95.7C207.194 97.1 209.661 97.8 212.661 97.8C215.728 97.8 218.194 97.1 220.061 95.7C221.994 94.3 223.394 92.2667 224.261 89.6C225.128 86.8667 225.561 83.6 225.561 79.8C225.561 75.9333 225.094 72.7 224.161 70.1C223.294 67.4333 221.894 65.4333 219.961 64.1C218.094 62.7 215.661 62 212.661 62C208.128 62 204.828 63.5333 202.761 66.6C200.761 69.6667 199.761 74.0667 199.761 79.8ZM279.887 51.8C280.687 51.8 281.62 51.8333 282.687 51.9C283.753 51.9667 284.653 52.1 285.387 52.3L284.287 64C283.687 63.8667 282.887 63.7667 281.887 63.7C280.953 63.5667 280.12 63.5 279.387 63.5C277.387 63.5 275.453 63.8333 273.587 64.5C271.787 65.1 270.153 66.0333 268.687 67.3C267.287 68.5 266.153 70.0667 265.287 72C264.487 73.9333 264.087 76.2333 264.087 78.9V107H251.487V52.8H261.187L262.987 62.2H263.587C264.653 60.2667 265.987 58.5333 267.587 57C269.187 55.4 271.02 54.1333 273.087 53.2C275.22 52.2667 277.487 51.8 279.887 51.8ZM315.079 51.8C322.079 51.8 327.379 53.3333 330.979 56.4C334.646 59.4 336.479 64.1333 336.479 70.6V107H327.579L325.079 99.5H324.679C323.146 101.433 321.546 103.067 319.879 104.4C318.279 105.667 316.412 106.567 314.279 107.1C312.212 107.7 309.679 108 306.679 108C303.479 108 300.579 107.4 297.979 106.2C295.446 105 293.446 103.167 291.979 100.7C290.512 98.1667 289.779 95 289.779 91.2C289.779 85.6 291.812 81.4 295.879 78.6C300.012 75.7333 306.246 74.1667 314.579 73.9L323.979 73.6V70.9C323.979 67.4333 323.146 64.9667 321.479 63.5C319.812 62.0333 317.479 61.3 314.479 61.3C311.746 61.3 309.112 61.7 306.579 62.5C304.046 63.3 301.579 64.2333 299.179 65.3L295.179 56.5C297.846 55.1 300.879 53.9667 304.279 53.1C307.746 52.2333 311.346 51.8 315.079 51.8ZM317.379 81.6C311.846 81.8 308.012 82.7667 305.879 84.5C303.746 86.1667 302.679 88.4333 302.679 91.3C302.679 93.8333 303.446 95.6667 304.979 96.8C306.512 97.9333 308.479 98.5 310.879 98.5C314.546 98.5 317.646 97.4667 320.179 95.4C322.712 93.2667 323.979 90.1333 323.979 86V81.4L317.379 81.6Z" fill="white"/>
<path d="M34.8075 75.7712L44.4683 96.3201L65.4287 51.3705L46.1517 51.4435L34.8075 75.7712Z" fill="white"/>
<path d="M0 51.3705L19.277 51.4435L42.0834 100.352L26.2774 107.722L0 51.3705Z" fill="#17A07C"/>
<path d="M42.5697 101.395L39.4676 107.772L26.2773 107.722L42.0834 100.352L42.5697 101.395Z" fill="#17A07C"/>
</svg>
