<svg xmlns="http://www.w3.org/2000/svg" width="112" height="21" viewBox="0 0 112 21" fill="none">
<path d="M11.9999 0L0 20.733H2.78257L13.3893 2.40607L11.9999 0Z" fill="white"/>
<path d="M15.6909 6.39551L4.17773 20.733H7.26709L16.9839 8.63298L15.6909 6.39551Z" fill="white"/>
<path d="M20.5128 14.7424L19.2996 12.6406L8.58008 20.731H12.5784L20.5128 14.7424Z" fill="white"/>
<path d="M22.7153 18.5576L14.2129 20.733H23.9728L22.7153 18.5576Z" fill="white"/>
<g clip-path="url(#clip0_1329_24452)">
<path d="M40.6585 14.1105H32.9694L31.7418 17.3105C31.5702 17.7381 31.486 18.1105 31.486 18.4247C31.486 19.3381 32.2018 19.6523 33.9443 19.7106V20.7114H28.0527V19.7106C28.8527 19.5972 29.426 19.4255 29.7402 18.6514L35.9718 2.64806L35.0844 0.503906H39.5443L46.8902 18.6547C47.2043 19.4255 47.8035 19.5972 48.5776 19.7138V20.7146H39.8294V19.7138C41.5168 19.6555 42.2294 19.3705 42.2294 18.4571C42.2294 18.1429 42.1452 17.7705 41.9735 17.3429L40.6585 14.1137V14.1105ZM33.4261 12.8797H40.1727L36.7427 4.27398L33.4261 12.8797Z" fill="white"/>
<path d="M55.0661 18.2854C55.0661 19.4579 55.7236 19.6296 57.4953 19.7721V20.7146H49.3203V19.7721C50.6645 19.6846 51.1211 19.5162 51.1211 18.5154V8.39707L49.4045 7.39625V6.85211L54.522 5.28125H55.1795L55.0661 9.51125C56.4394 6.39543 57.2945 5.28125 58.9819 5.28125C59.5811 5.28125 60.0119 5.48206 60.2386 5.76708V8.85375H59.6945C57.9228 8.85375 56.5204 8.9412 55.0629 10.3987V18.2887L55.0661 18.2854Z" fill="white"/>
<path d="M69.1871 18.1691C70.988 18.1691 72.2447 17.4533 73.1904 16.0541L73.6762 16.3392C72.7888 19.455 70.6738 20.9999 67.7588 20.9999C63.9272 20.9999 61.0996 18.14 61.0996 13.6541C61.0996 8.87997 63.9855 5.27832 68.5037 5.27832C71.3054 5.27832 73.2487 6.42165 73.2487 8.6241C73.2487 9.53747 72.7629 10.2533 72.1637 10.5383H69.9904C70.0487 10.0816 70.1037 9.65083 70.1037 9.13908C70.1037 7.62328 69.6179 6.36659 68.0179 6.36659C65.8446 6.36659 64.5879 8.82491 64.5879 11.999C64.5879 15.7432 66.3013 18.1724 69.1904 18.1724L69.1871 18.1691Z" fill="white"/>
<path d="M87.5093 11.2505V11.908H78.191C78.0776 15.9113 80.1343 18.2821 82.936 18.2821C84.8793 18.2821 86.1651 17.453 87.1951 15.9663L87.6518 16.2222C86.9101 19.053 84.821 20.9963 81.5335 20.9963C77.3877 20.9963 74.6152 17.9388 74.6152 13.5339C74.6152 8.64641 77.7602 5.27148 81.676 5.27148C85.5919 5.27148 87.506 7.81402 87.506 11.2472L87.5093 11.2505ZM78.2493 10.8521H83.9659C83.9659 8.16382 83.2501 6.33384 81.3942 6.33384C79.5384 6.33384 78.4792 8.22212 78.2493 10.8521Z" fill="white"/>
<path d="M101.66 11.2505V11.908H92.3414C92.228 15.9113 94.2847 18.2821 97.0863 18.2821C99.0297 18.2821 100.316 17.453 101.345 15.9663L101.802 16.2222C101.06 19.053 98.9714 20.9963 95.6839 20.9963C91.5381 20.9963 88.7656 17.9388 88.7656 13.5339C88.7656 8.64641 91.9106 5.27148 95.8264 5.27148C99.7422 5.27148 101.656 7.81402 101.656 11.2472L101.66 11.2505ZM92.3997 10.8521H98.1163C98.1163 8.16382 97.4005 6.33384 95.5446 6.33384C93.6887 6.33384 92.6296 8.22212 92.3997 10.8521Z" fill="white"/>
</g>
<path d="M106.723 5.23147L106.448 4.16405H104.917L104.62 5.23147H103.725L105.136 0.476562H106.313L107.65 5.23147H106.72H106.723ZM105.124 3.40339H106.248L105.703 1.32174L105.124 3.40339Z" fill="white"/>
<path d="M108.627 5.23461V4.427H109.785V1.28418H108.627V0.476562H111.845V1.28418H110.687V4.427H111.845V5.23461H108.627Z" fill="white"/>
<defs>
<clipPath id="clip0_1329_24452">
<rect width="73.7497" height="20.4957" fill="white" transform="translate(28.0527 0.503906)"/>
</clipPath>
</defs>
</svg>