<svg width="256" height="233" viewBox="0 0 256 233" fill="none" xmlns="http://www.w3.org/2000/svg">
  <g clip-path="url(#clip0_34_18)">
    <path d="M232.727 0H186.182V46.5455H232.727V0Z" fill="black" />
    <path d="M256 0H209.455V46.5455H256V0Z" fill="#F7D046" />
    <path d="M46.5455 0H0V46.5455H46.5455V0Z" fill="black" />
    <path d="M46.5455 46.5454H0V93.0909H46.5455V46.5454Z" fill="black" />
    <path d="M46.5455 93.0908H0V139.636H46.5455V93.0908Z" fill="black" />
    <path d="M46.5455 139.636H0V186.182H46.5455V139.636Z" fill="black" />
    <path d="M46.5455 186.182H0V232.727H46.5455V186.182Z" fill="black" />
    <path d="M69.8182 0H23.2727V46.5455H69.8182V0Z" fill="#F7D046" />
    <path d="M256 46.5454H209.455V93.0909H256V46.5454Z" fill="#F2A73B" />
    <path d="M69.8182 46.5454H23.2727V93.0909H69.8182V46.5454Z" fill="#F2A73B" />
    <path d="M186.182 46.5454H139.636V93.0909H186.182V46.5454Z" fill="black" />
    <path d="M209.455 46.5454H162.909V93.0909H209.455V46.5454Z" fill="#F2A73B" />
    <path d="M116.364 46.5454H69.8181V93.0909H116.364V46.5454Z" fill="#F2A73B" />
    <path d="M162.909 93.0908H116.364V139.636H162.909V93.0908Z" fill="#EE792F" />
    <path d="M209.455 93.0908H162.909V139.636H209.455V93.0908Z" fill="#EE792F" />
    <path d="M116.364 93.0908H69.8181V139.636H116.364V93.0908Z" fill="#EE792F" />
    <path d="M139.636 139.636H93.0908V186.182H139.636V139.636Z" fill="black" />
    <path d="M162.909 139.636H116.364V186.182H162.909V139.636Z" fill="#EB5829" />
    <path d="M256 93.0908H209.455V139.636H256V93.0908Z" fill="#EE792F" />
    <path d="M69.8182 93.0908H23.2727V139.636H69.8182V93.0908Z" fill="#EE792F" />
    <path d="M232.727 139.636H186.182V186.182H232.727V139.636Z" fill="black" />
    <path d="M256 139.636H209.455V186.182H256V139.636Z" fill="#EB5829" />
    <path d="M232.727 186.182H186.182V232.727H232.727V186.182Z" fill="black" />
    <path d="M69.8182 139.636H23.2727V186.182H69.8182V139.636Z" fill="#EB5829" />
    <path d="M256 186.182H209.455V232.727H256V186.182Z" fill="#EA3326" />
    <path d="M69.8182 186.182H23.2727V232.727H69.8182V186.182Z" fill="#EA3326" />
  </g>
  <defs>
    <clipPath id="clip0_34_18">
      <rect width="256" height="233" fill="white" />
    </clipPath>
  </defs>
</svg>