<?xml version="1.0" encoding="UTF-8"?>
<svg version="1.1" xmlns="http://www.w3.org/2000/svg" width="200" height="200">
<path d="M0 0 C1.96383636 -0.00639748 1.96383636 -0.00639748 3.96734619 -0.01292419 C5.40109256 -0.01257475 6.8348389 -0.01211326 8.26858521 -0.0115509 C9.79194216 -0.01454599 11.31529835 -0.01794933 12.83865356 -0.02172852 C16.96268284 -0.03053643 21.08669135 -0.03290526 25.21072912 -0.0335443 C27.79065636 -0.03425655 30.37057837 -0.03639416 32.9505043 -0.03904152 C41.96050602 -0.04828384 50.97049297 -0.05237774 59.98049927 -0.05158997 C68.36415463 -0.05098925 76.74774565 -0.0615427 85.13138473 -0.07733363 C92.34265026 -0.09042981 99.5538948 -0.095773 106.76517212 -0.09513456 C111.06621766 -0.09488021 115.36720595 -0.09769644 119.66823959 -0.10831261 C123.7148211 -0.1180288 127.76129103 -0.11804874 131.80787659 -0.11079597 C133.28765654 -0.10975455 134.76744358 -0.1120866 136.24721146 -0.11815643 C151.0629527 -0.17496314 151.0629527 -0.17496314 158.29641724 2.13371277 C159.28641724 3.61871277 159.28641724 3.61871277 160.29641724 5.13371277 C161.28641724 5.59777527 161.28641724 5.59777527 162.29641724 6.07121277 C164.83691547 7.42085246 165.09702763 8.55006915 166.29641724 11.13371277 C166.71430197 11.8780809 167.1321867 12.62244904 167.5627346 13.38937378 C171.73148454 21.3970004 172.0105727 28.64746102 171.94338989 37.52824402 C171.95017958 39.0489557 171.95909024 40.56965915 171.96994019 42.09034729 C171.99258008 46.18968555 171.98396134 50.28838905 171.96804476 54.38773727 C171.95530569 58.69606371 171.96714795 63.00433907 171.97497559 67.31266785 C171.984049 74.54510667 171.97214515 81.77728946 171.94827271 89.00968933 C171.92106576 97.34812727 171.92988157 105.68595373 171.95740473 114.02437687 C171.98016091 121.20862814 171.98326422 128.39269631 171.97021139 135.57697201 C171.96245249 139.85686184 171.96127633 144.13646512 171.97789383 148.41633606 C171.99243467 152.44188912 171.98214382 156.46666083 171.95342255 160.49213028 C171.94686261 161.9613834 171.94862123 163.43070332 171.95973587 164.89992905 C172.02354745 174.19886503 170.86118182 181.00260617 166.29641724 189.13371277 C165.95178247 189.87183701 165.60714771 190.60996124 165.25206947 191.37045288 C163.99624097 193.68756358 162.65226605 194.02507803 160.29641724 195.13371277 C159.69829224 195.81433777 159.10016724 196.49496277 158.48391724 197.19621277 C154.25846055 200.93876012 148.01191273 200.2594048 142.59283447 200.26742554 C140.62899811 200.27382301 140.62899811 200.27382301 138.62548828 200.28034973 C137.19174191 200.28000029 135.75799557 200.27953879 134.32424927 200.27897644 C132.80089231 200.28197153 131.27753612 200.28537486 129.75418091 200.28915405 C125.63015163 200.29796197 121.50614312 200.30033079 117.38210535 200.30096984 C114.80217811 200.30168208 112.22225611 200.3038197 109.64233017 200.30646706 C100.63232845 200.31570938 91.6223415 200.31980328 82.61233521 200.3190155 C74.22867984 200.31841479 65.84508883 200.32896824 57.46144974 200.34475917 C50.25018421 200.35785535 43.03893967 200.36319854 35.82766235 200.36256009 C31.52661681 200.36230575 27.22562852 200.36512198 22.92459488 200.37573814 C18.87801337 200.38545433 14.83154344 200.38547428 10.78495789 200.37822151 C9.30517793 200.37718009 7.82539089 200.37951214 6.34562302 200.38558197 C-8.47011823 200.44238868 -8.47011823 200.44238868 -15.70358276 198.13371277 C-16.36358276 197.14371277 -17.02358276 196.15371277 -17.70358276 195.13371277 C-18.36358276 194.84496277 -19.02358276 194.55621277 -19.70358276 194.25871277 C-22.44422504 192.71710149 -22.59152098 191.03255518 -23.70358276 188.13371277 C-24.56404748 186.68093795 -25.4256085 185.22881201 -26.28814697 183.77726746 C-29.68021217 177.00892275 -29.40644777 170.25281948 -29.35055542 162.83683777 C-29.35734311 161.31465107 -29.36625267 159.79247259 -29.37710571 158.27030945 C-29.39976932 154.16271566 -29.3911169 150.05575452 -29.37521029 145.94815063 C-29.36248369 141.63401175 -29.37431006 137.31992427 -29.38214111 133.00578308 C-29.39121811 125.76317191 -29.37930119 118.52081632 -29.35543823 111.27824402 C-29.32823059 102.92447044 -29.33704614 94.57130717 -29.36457026 86.21754837 C-29.38731614 79.02399119 -29.39043474 71.83061692 -29.37737691 64.63703537 C-29.3696124 60.34989683 -29.36845757 56.06304444 -29.38505936 51.77592468 C-29.39958508 47.74382189 -29.38933642 43.71250006 -29.36058807 39.68048096 C-29.35402018 38.20758353 -29.35580075 36.7346195 -29.3669014 35.26174927 C-29.42098013 27.35257254 -29.06543395 21.16398526 -24.96990013 14.27171326 C-23.60635695 12.10415812 -23.60635695 12.10415812 -22.659235 9.42784119 C-21.4600091 6.54899246 -20.48668027 6.3615499 -17.70358276 5.13371277 C-17.10545776 4.45308777 -16.50733276 3.77246277 -15.89108276 3.07121277 C-11.66562608 -0.67133458 -5.41907826 0.00802074 0 0 Z " fill="#0A0B0C" transform="translate(28.703582763671875,-0.1337127685546875)"/>
<path d="M0 0 C2.5855921 0.10046798 5.1715606 0.19169755 7.7578125 0.2734375 C14.05517105 0.49244469 20.33831477 0.82564658 26.625 1.25 C25.8499281 2.67428328 25.07121525 4.09658554 24.29101562 5.51806641 C23.85776978 6.31032623 23.42452393 7.10258606 22.97814941 7.91885376 C20.96989998 11.37857747 18.58464611 14.47833648 16.125 17.625 C11.62171299 23.50446682 7.33647674 29.49058487 3.1875 35.625 C-1.06639875 41.91055469 -5.40398487 48.11689996 -9.875 54.25 C-14.31676671 60.34633316 -18.63928546 66.50876532 -22.875 72.75 C-27.64928755 79.78178504 -32.54476226 86.71024341 -37.54394531 93.58374023 C-41.98448157 99.6911709 -46.34781394 105.85031734 -50.68188477 112.03369141 C-54.27450742 117.14950742 -54.27450742 117.14950742 -55.375 118.25 C-57.06301985 118.34353163 -58.75495207 118.36744791 -60.44555664 118.36352539 C-61.52660172 118.36344986 -62.60764679 118.36337433 -63.72145081 118.36329651 C-65.485485 118.35555458 -65.485485 118.35555458 -67.28515625 118.34765625 C-68.48232773 118.3462413 -69.67949921 118.34482635 -70.91294861 118.34336853 C-74.75449066 118.33774979 -78.59597543 118.32519411 -82.4375 118.3125 C-85.03450437 118.30748741 -87.63150965 118.30292409 -90.22851562 118.29882812 C-96.61069679 118.28777427 -102.9928443 118.27101792 -109.375 118.25 C-108.05000242 114.83183154 -106.66448022 111.97682058 -104.5390625 108.984375 C-103.97558105 108.18555908 -103.41209961 107.38674316 -102.83154297 106.5637207 C-102.22713379 105.71769287 -101.62272461 104.87166504 -101 104 C-100.37367676 103.11465576 -99.74735352 102.22931152 -99.10205078 101.31713867 C-97.81427243 99.49753685 -96.52439117 97.6794215 -95.23242188 95.86279297 C-93.0507826 92.79393077 -90.88131245 89.71663467 -88.71289062 86.63842773 C-85.78552084 82.48431805 -82.84992207 78.33601762 -79.91601562 74.18652344 C-78.44364312 72.10377488 -76.97169684 70.02072605 -75.5 67.9375 C-75.00927002 67.24301758 -74.51854004 66.54853516 -74.01293945 65.83300781 C-71.31998349 62.0181684 -68.63680167 58.19676761 -65.96484375 54.3671875 C-56.25930668 40.45717828 -56.25930668 40.45717828 -52.08984375 34.68359375 C-51.58980331 33.99066727 -51.08976288 33.29774078 -50.5745697 32.58381653 C-49.50786829 31.1190426 -48.43029836 29.66205802 -47.33720398 28.21687317 C-44.40322837 24.29126445 -41.87645893 20.42327066 -39.67529297 16.04003906 C-30.15123182 -1.81330632 -18.83020128 -1.27556323 0 0 Z " fill="#FCFCFC" transform="translate(141.375,40.75)"/>
<path d="M0 0 C1.12093552 0.00015106 2.24187103 0.00030212 3.39677429 0.00045776 C4.60622208 0.01078033 5.81566986 0.02110291 7.06176758 0.03173828 C8.91986809 0.03598312 8.91986809 0.03598312 10.81550598 0.04031372 C14.10517969 0.04961892 17.39465746 0.06758287 20.68426514 0.08972168 C24.04249677 0.11019808 27.4007571 0.11931926 30.7590332 0.12939453 C37.34570846 0.1514681 43.93221557 0.18600501 50.51879883 0.22705078 C50.51879883 6.16705078 50.51879883 12.10705078 50.51879883 18.22705078 C27.74879883 18.22705078 4.97879883 18.22705078 -18.48120117 18.22705078 C-16.77845837 13.97019378 -15.20518724 11.17245448 -12.54370117 7.53955078 C-11.85405273 6.58693359 -11.1644043 5.63431641 -10.45385742 4.65283203 C-7.18242778 0.62994528 -4.99924313 -0.02246851 0 0 Z " fill="#F1F0F1" transform="translate(115.481201171875,140.77294921875)"/>
<path d="M0 0 C22.77 0 45.54 0 69 0 C67.31022154 4.22444614 65.74541132 7.06342171 63.125 10.6875 C62.44695312 11.64011719 61.76890625 12.59273437 61.0703125 13.57421875 C58.41633592 16.6838781 56.52492533 17.85723864 52.43096924 18.24050903 C50.97868927 18.2338472 50.97868927 18.2338472 49.49707031 18.22705078 C48.39623108 18.22689972 47.29539185 18.22674866 46.16119385 18.22659302 C44.97878113 18.21627045 43.79636841 18.20594788 42.578125 18.1953125 C40.75544098 18.19106766 40.75544098 18.19106766 38.89593506 18.18673706 C35.01385665 18.17553954 31.13200871 18.15043534 27.25 18.125 C24.61849291 18.11496966 21.98698221 18.10584391 19.35546875 18.09765625 C12.903557 18.07560154 6.45181758 18.04107425 0 18 C0 12.06 0 6.12 0 0 Z " fill="#F0F0F0" transform="translate(34,41)"/>
<path d="M0 0 C0.66 0.33 1.32 0.66 2 1 C2 4 2 4 0.1875 6 C-0.534375 6.66 -1.25625 7.32 -2 8 C-2.5775 8.5775 -3.155 9.155 -3.75 9.75 C-4.36875 10.36875 -4.36875 10.36875 -5 11 C-5.66 10.67 -6.32 10.34 -7 10 C-3.535 5.05 -3.535 5.05 0 0 Z " fill="#1B1D1C" transform="translate(146,73)"/>
<path d="M0 0 C2 1 2 1 2 1 Z " fill="#000000" transform="translate(181,199)"/>
<path d="M0 0 C2 1 2 1 2 1 Z " fill="#000000" transform="translate(17,199)"/>
<path d="" fill="#000000" transform="translate(0,0)"/>
<path d="" fill="#000000" transform="translate(0,0)"/>
<path d="" fill="#000000" transform="translate(0,0)"/>
<path d="" fill="#000000" transform="translate(0,0)"/>
<path d="" fill="#010101" transform="translate(0,0)"/>
<path d="" fill="#010101" transform="translate(0,0)"/>
<path d="" fill="#000103" transform="translate(0,0)"/>
<path d="" fill="#000002" transform="translate(0,0)"/>
<path d="" fill="#000202" transform="translate(0,0)"/>
<path d="" fill="#000102" transform="translate(0,0)"/>
<path d="" fill="#000000" transform="translate(0,0)"/>
<path d="" fill="#010101" transform="translate(0,0)"/>
<path d="M0 0 C2 1 2 1 2 1 Z " fill="#010203" transform="translate(181,0)"/>
<path d="M0 0 C2 1 2 1 2 1 Z " fill="#000103" transform="translate(17,0)"/>
<path d="" fill="#010101" transform="translate(0,0)"/>
<path d="" fill="#000000" transform="translate(0,0)"/>
<path d="" fill="#010101" transform="translate(0,0)"/>
<path d="" fill="#010101" transform="translate(0,0)"/>
<path d="" fill="#010101" transform="translate(0,0)"/>
<path d="" fill="#000000" transform="translate(0,0)"/>
<path d="" fill="#000000" transform="translate(0,0)"/>
<path d="" fill="#000201" transform="translate(0,0)"/>
<path d="" fill="#000000" transform="translate(0,0)"/>
<path d="" fill="#000000" transform="translate(0,0)"/>
<path d="" fill="#050407" transform="translate(0,0)"/>
<path d="" fill="#000002" transform="translate(0,0)"/>
<path d="" fill="#000100" transform="translate(0,0)"/>
<path d="" fill="#000000" transform="translate(0,0)"/>
</svg>
