<svg width="39" height="52" viewBox="0 0 39 52" fill="none" xmlns="http://www.w3.org/2000/svg">
  <path fill-rule="evenodd" clip-rule="evenodd"
    d="M37.0696 5.39513C36.1137 2.41762 32.9235 0.777216 29.9499 1.7345L5.38764 9.64179C2.41404 10.5991 0.776166 13.7938 1.73211 16.7713C2.68805 19.7488 5.87825 21.3892 8.85185 20.4319L33.4141 12.5246C36.3877 11.5673 38.0255 8.37263 37.0696 5.39513Z"
    fill="white" />
  <path fill-rule="evenodd" clip-rule="evenodd"
    d="M37.0696 20.2298C36.1137 17.2523 32.9235 15.6119 29.9499 16.5692L5.38764 24.4765C2.41404 25.4338 0.776166 28.6285 1.73211 31.606C2.68805 34.5835 5.87825 36.2239 8.85185 35.2666L33.4141 27.3593C36.3877 26.4021 38.0255 23.2073 37.0696 20.2298Z"
    fill="white" />
  <path fill-rule="evenodd" clip-rule="evenodd"
    d="M37.0696 35.0643C36.1137 32.0868 32.9235 30.4464 29.9499 31.4037L5.38764 39.311C2.41404 40.2683 0.776166 43.463 1.73211 46.4405C2.68805 49.418 5.87825 51.0584 8.85185 50.1011L33.4141 42.1938C36.3877 41.2365 38.0255 38.0418 37.0696 35.0643Z"
    fill="white" />
</svg>