<svg width="411" height="199" viewBox="0 0 411 199" fill="none" xmlns="http://www.w3.org/2000/svg">
  <path
    d="M88.1069 131.232C88.1069 142.672 90.6158 151.454 93.8975 156.768C98.199 163.728 104.614 166.682 111.155 166.682C119.59 166.682 127.307 164.587 142.179 144.01C154.096 127.518 168.132 104.368 177.578 89.8547L193.575 65.2667C204.687 48.1908 217.549 29.2087 232.297 16.3419C244.339 5.83932 257.323 0.00512695 270.393 0.00512695C292.337 0.00512695 313.239 12.7264 329.236 36.5852C346.743 62.7142 355.241 95.6274 355.241 129.591C355.241 149.783 351.263 164.619 344.492 176.34C337.953 187.674 325.205 199 303.762 199V166.677C322.123 166.677 326.704 149.798 326.704 130.482C326.704 102.956 320.289 72.4098 306.156 50.5827C296.128 35.1006 283.131 25.6409 268.831 25.6409C253.365 25.6409 240.92 37.3118 226.932 58.1149C219.496 69.1696 211.863 82.6401 203.291 97.8411L193.855 114.563C174.903 148.189 170.101 155.844 160.623 168.479C144.013 190.606 129.828 198.995 111.155 198.995C89.0026 198.995 74.9953 189.399 66.3195 174.938C59.2381 163.155 55.7595 147.693 55.7595 130.077L88.1069 131.232Z"
    fill="#0081FB" />
  <path
    d="M81.2649 38.8616C96.0951 15.9929 117.497 0 142.045 0C156.26 0 170.395 4.20905 185.15 16.264C201.292 29.4408 218.497 51.1511 239.962 86.9168L247.658 99.7485C266.238 130.713 276.808 146.643 282.995 154.155C290.951 163.802 296.523 166.678 303.761 166.678C322.123 166.678 326.704 149.799 326.704 130.483L355.24 129.587C355.24 149.779 351.263 164.615 344.492 176.336C337.953 187.67 325.205 198.996 303.761 198.996C290.43 198.996 278.621 196.1 265.561 183.774C255.525 174.314 243.783 157.509 234.754 142.402L207.895 97.5197C194.419 74.9949 182.053 58.2001 174.902 50.5939C167.205 42.4143 157.311 32.5379 141.523 32.5379C128.745 32.5379 117.892 41.5082 108.811 55.2297L81.2649 38.8616Z"
    fill="url(#paint0_linear_35_59)" />
  <path
    d="M141.523 32.5379C128.745 32.5379 117.893 41.5082 108.812 55.2297C95.9698 74.6184 88.1132 103.498 88.1132 131.232C88.1132 142.672 90.6221 151.454 93.9037 156.768L66.3195 174.938C59.2381 163.155 55.7595 147.693 55.7595 130.076C55.7595 98.0393 64.5495 64.6479 81.2651 38.8616C96.0953 15.9929 117.498 0 142.045 0L141.523 32.5379Z"
    fill="url(#paint1_linear_35_59)" />
  <defs>
    <linearGradient id="paint0_linear_35_59" x1="120.68" y1="94.341" x2="326.888" y2="104.751"
      gradientUnits="userSpaceOnUse">
      <stop stop-color="#0064E1" />
      <stop offset="0.4" stop-color="#0064E1" />
      <stop offset="0.83" stop-color="#0073EE" />
      <stop offset="1" stop-color="#0082FB" />
    </linearGradient>
    <linearGradient id="paint1_linear_35_59" x1="98.9015" y1="144.818" x2="98.9015" y2="68.7629"
      gradientUnits="userSpaceOnUse">
      <stop stop-color="#0082FB" />
      <stop offset="1" stop-color="#0064E0" />
    </linearGradient>
  </defs>
</svg>