<svg width="253" height="253" viewBox="0 0 253 253" xmlns="http://www.w3.org/2000/svg">
  <path id="openai"
    d="M246.348 118.051C241.48 108.294 239.138 97.1098 239.587 86.2158C239.713 83.1684 239.615 80.1082 239.291 77.0595C238.34 68.1322 235.47 59.5078 230.87 51.7623C224.052 40.0551 213.64 30.7861 201.137 25.2918C193.905 22.114 186.19 20.2939 178.38 19.8715C167.753 19.2969 157.168 15.8815 148.184 10.1767C143.531 7.22222 138.495 4.85492 133.189 3.14865C122.375 -0.3286 110.825 -0.938047 99.6972 1.38152C88.5696 3.70109 78.2566 8.86802 69.7941 16.3633C65.7217 19.9703 62.1468 24.0554 59.1401 28.5115C53.12 37.4337 44.6934 44.9082 35.0937 49.7757C32.2032 51.2414 29.4227 52.926 26.7782 54.8183C19.4107 60.0902 13.2687 66.8526 8.76278 74.6535C1.87012 86.3413 -1.07576 99.8884 0.351046 113.336C1.15161 120.882 3.30553 128.177 6.66656 134.898C11.5612 144.686 13.9204 155.915 13.4708 166.85C13.3466 169.871 13.4426 172.905 13.7616 175.929C14.7033 184.856 17.567 193.482 22.1609 201.23C28.9881 212.942 39.4087 222.213 51.9208 227.707C59.1223 230.869 66.8027 232.687 74.5784 233.119C85.2707 233.714 95.9181 237.194 104.955 242.939C107.691 244.679 110.565 246.215 113.554 247.529C121.863 251.185 130.867 253.049 139.965 252.999C153.683 253.011 167.05 248.724 178.137 240.755C184.418 236.24 189.784 230.675 194.017 224.356C200.037 215.37 208.488 207.829 218.127 202.92C220.985 201.465 223.735 199.796 226.352 197.923C233.719 192.651 239.862 185.89 244.37 178.091C251.181 166.421 254.076 152.924 252.642 139.533C251.836 132.017 249.69 124.75 246.348 118.051ZM139.965 236.44C129.313 236.457 118.978 232.966 110.585 226.549C109.922 226.041 110.012 225.029 110.741 224.621L161.806 195.545C163.077 194.81 164.132 193.761 164.868 192.502C165.604 191.243 165.995 189.816 166.003 188.363V142.2C166.003 131.121 177.968 124.173 187.591 129.664C187.697 129.717 187.79 129.795 187.86 129.89C188 130.079 187.997 130.33 187.997 130.565V189.062C187.97 201.619 182.9 213.655 173.898 222.534C164.896 231.414 152.695 236.414 139.965 236.44ZM36.7218 192.952C31.3864 183.864 29.2893 173.295 30.7325 162.924C30.8501 162.079 31.7917 161.646 32.5261 162.081L83.6415 191.156C84.9062 191.889 86.3461 192.275 87.8125 192.275C89.279 192.275 90.7189 191.889 91.9836 191.156L133.052 167.801C142.587 162.379 154.425 169.266 154.425 180.234C154.419 180.362 154.384 180.486 154.323 180.598C154.261 180.711 154.175 180.808 154.07 180.883L102.348 210.307C91.3096 216.58 78.1991 218.275 65.8949 215.021C53.5907 211.767 43.0985 203.83 36.7218 192.952ZM23.2734 83.1083C23.2734 83.1427 23.3189 83.155 23.3364 83.1254C27.4399 76.1814 33.2425 70.4287 40.152 66.3542C44.0542 64.0532 48.5532 67.1898 48.5532 71.7199V122.283C48.534 123.729 48.9085 125.153 49.6377 126.407C50.3669 127.662 51.424 128.7 52.6987 129.414L93.2338 152.481C102.772 157.908 102.78 171.653 93.2479 177.092C93.1311 177.153 93.0008 177.185 92.8685 177.185C92.7362 177.185 92.606 177.153 92.4891 177.092L40.8683 147.718C29.8508 141.418 21.8131 131.069 18.5153 118.936C15.2284 106.843 16.9172 93.9603 23.2106 83.0916C23.2279 83.0618 23.2734 83.0739 23.2734 83.1083ZM200.636 123.879L159.806 100.491C150.297 95.044 150.313 81.3241 159.835 75.8995C159.951 75.8383 160.082 75.8063 160.214 75.8063C160.346 75.8063 160.477 75.8383 160.593 75.8995L212.214 105.324C220.107 109.817 226.541 116.431 230.766 124.395C234.991 132.36 236.832 141.345 236.074 150.302C235.316 159.26 231.99 167.82 226.485 174.983C218.495 185.38 204.985 176.848 204.985 163.735V130.909C204.94 129.466 204.515 128.058 203.753 126.826C202.99 125.593 201.917 124.578 200.636 123.879ZM222.125 91.8192C222.125 91.9039 222.033 91.9561 221.96 91.913L220.607 91.1121L169.593 61.7874C168.32 61.0508 166.872 60.6625 165.396 60.6625C163.921 60.6625 162.472 61.0508 161.199 61.7874L120.178 85.1345C110.648 90.5587 98.8104 83.6757 98.8104 72.7096C98.7971 72.5846 98.8183 72.4584 98.8717 72.3443C98.9251 72.2302 99.0088 72.1324 99.1139 72.0613L150.735 42.686C158.646 38.1902 167.692 36.0093 176.814 36.3985C185.936 36.7877 194.757 39.7309 202.246 44.8837C209.734 50.0366 215.581 57.1862 219.101 65.4963C222.62 73.8036 223.67 82.9273 222.127 91.801C222.126 91.807 222.125 91.8131 222.125 91.8192ZM87.0461 110.767C87.0381 121.85 75.0767 128.805 65.4406 123.328C65.3326 123.264 65.2403 123.177 65.1701 123.074C65.0308 122.869 65.0345 122.606 65.0345 122.358V64.0317C65.0464 55.0268 67.6569 46.2113 72.5608 38.6158C77.4647 31.0204 84.4593 24.959 92.7268 21.1403C100.994 17.3217 110.193 15.9035 119.248 17.0517C127.724 18.1265 135.745 21.4085 142.494 26.5461C143.158 27.0521 143.069 28.065 142.34 28.4727L91.2762 57.5465C90.0052 58.2818 88.95 59.3305 88.2142 60.5897C87.4785 61.8489 87.0874 63.2752 87.0794 64.7285L87.0461 110.767ZM98.7837 126.493C98.7679 116.709 104.015 107.673 112.521 102.837L112.841 102.655C121.352 97.8155 131.781 97.8113 140.296 102.644L140.663 102.852C149.169 107.679 154.425 116.705 154.425 126.485C154.425 136.25 149.185 145.264 140.7 150.097L140.392 150.273C131.881 155.12 121.448 155.128 112.93 150.294L112.54 150.072C104.051 145.255 98.7996 136.253 98.7837 126.493Z" />
</svg>